<svg width="387" height="109" viewBox="0 0 387 109" fill="none" xmlns="http://www.w3.org/2000/svg">
<defs>
<linearGradient id="paint0_linear" x1="40.9369" y1="22.9708" x2="40.9369" y2="109" gradientUnits="userSpaceOnUse">
<stop stop-color="#B7B1F7" stop-opacity="0.999563"/>
<stop offset="1" stop-color="white"/>
</linearGradient>
</defs>
<path fill-rule="evenodd" clip-rule="evenodd" d="M0.450622 74.4238C0.450622 74.4238 18.2507 74.1826 40.8448 54.9433C63.4389 35.7039 113.076 56.5433 123.191 56.5433C133.306 56.5433 142.183 55.8412 162.443 36.6213C182.704 17.4014 193.105 10.1637 221.4 31.1951C249.694 52.2265 243.663 48.0664 243.663 48.0664C243.663 48.0664 261.135 55.8143 276.822 41.0411C292.508 26.2679 298.241 15.4971 298.241 15.4971C298.241 15.4971 311.981 -5.17621 338.579 1.23227C365.177 7.64075 386.857 10.9215 386.857 10.9215V81.7589C386.857 81.7589 388.697 109 379.171 109C369.644 109 18.1744 109 7.73012 109C-2.71411 109 0.450622 74.4238 0.450622 74.4238Z" fill="url(#paint0_linear)" fill-opacity="0.35"/>
</svg>
